<svg xmlns="http://www.w3.org/2000/svg"><defs><symbol id="calendar" viewBox="0 0 64 64"><rect x="10" y="14" width="44" height="40" rx="9" fill="none" stroke="currentColor" stroke-width="5"/><path d="M10 27h44M21 8v13M43 8v13" fill="none" stroke="currentColor" stroke-width="5" stroke-linecap="round"/></symbol><symbol id="photos" viewBox="0 0 64 64"><circle cx="32" cy="32" r="9" fill="currentColor"/><circle cx="32" cy="12" r="9" fill="currentColor"/><circle cx="51" cy="23" r="9" fill="currentColor"/><circle cx="44" cy="47" r="9" fill="currentColor"/><circle cx="20" cy="47" r="9" fill="currentColor"/><circle cx="13" cy="23" r="9" fill="currentColor"/></symbol><symbol id="mail" viewBox="0 0 64 64"><rect x="7" y="14" width="50" height="36" rx="8" fill="none" stroke="currentColor" stroke-width="5"/><path d="m9 18 23 18 23-18" fill="none" stroke="currentColor" stroke-width="5" stroke-linejoin="round"/></symbol><symbol id="messages" viewBox="0 0 64 64"><path d="M10 16a9 9 0 0 1 9-9h26a9 9 0 0 1 9 9v23a9 9 0 0 1-9 9H29L15 57V48a9 9 0 0 1-5-9Z" fill="currentColor"/></symbol><symbol id="safari" viewBox="0 0 64 64"><circle cx="32" cy="32" r="25" fill="none" stroke="currentColor" stroke-width="5"/><path d="m43 21-8 16-14 6 8-16Z" fill="currentColor"/></symbol><symbol id="music" viewBox="0 0 64 64"><path d="M24 45V14l29-6v31" fill="none" stroke="currentColor" stroke-width="5" stroke-linejoin="round"/><circle cx="17" cy="46" r="9" fill="currentColor"/><circle cx="46" cy="39" r="9" fill="currentColor"/></symbol><symbol id="notes" viewBox="0 0 64 64"><rect x="11" y="8" width="42" height="48" rx="7" fill="none" stroke="currentColor" stroke-width="5"/><path d="M20 23h24M20 33h24M20 43h15" fill="none" stroke="currentColor" stroke-width="5" stroke-linecap="round"/></symbol><symbol id="files" viewBox="0 0 64 64"><path d="M12 12h26l14 14v26H12Z" fill="none" stroke="currentColor" stroke-width="5" stroke-linejoin="round"/><path d="M38 12v15h14" fill="none" stroke="currentColor" stroke-width="5"/></symbol><symbol id="settings" viewBox="0 0 64 64"><circle cx="32" cy="32" r="8" fill="none" stroke="currentColor" stroke-width="5"/><path d="M32 7v9M32 48v9M7 32h9M48 32h9M14 14l7 7M43 43l7 7M50 14l-7 7M21 43l-7 7" fill="none" stroke="currentColor" stroke-width="5" stroke-linecap="round"/></symbol><symbol id="appstore" viewBox="0 0 64 64"><path d="M25 48 40 19M19 38h28M31 13l3 5M15 51h34" fill="none" stroke="currentColor" stroke-width="6" stroke-linecap="round"/><path d="M19 51 31 30M45 51 34 32" fill="none" stroke="currentColor" stroke-width="6" stroke-linecap="round"/></symbol><symbol id="weather" viewBox="0 0 64 64"><circle cx="32" cy="32" r="13" fill="none" stroke="currentColor" stroke-width="5"/><path d="M32 6v9M32 49v9M6 32h9M49 32h9M14 14l6 6M44 44l6 6M50 14l-6 6M20 44l-6 6" fill="none" stroke="currentColor" stroke-width="5" stroke-linecap="round"/></symbol><symbol id="clock" viewBox="0 0 64 64"><circle cx="32" cy="32" r="25" fill="none" stroke="currentColor" stroke-width="5"/><path d="M32 17v16l11 7" fill="none" stroke="currentColor" stroke-width="5" stroke-linecap="round"/></symbol><symbol id="calculator" viewBox="0 0 64 64"><rect x="10" y="7" width="44" height="50" rx="7" fill="none" stroke="currentColor" stroke-width="5"/><path d="M18 18h28M20 31h6M38 31h6M20 42h6M38 42h6M20 51h6M38 51h6" fill="none" stroke="currentColor" stroke-width="5" stroke-linecap="round"/></symbol><symbol id="camera" viewBox="0 0 64 64"><path d="M10 20h12l5-7h10l5 7h12v34H10Z" fill="none" stroke="currentColor" stroke-width="5" stroke-linejoin="round"/><circle cx="32" cy="37" r="10" fill="none" stroke="currentColor" stroke-width="5"/></symbol><symbol id="contacts" viewBox="0 0 64 64"><circle cx="32" cy="21" r="11" fill="currentColor"/><path d="M12 56c2-12 10-18 20-18s18 6 20 18" fill="currentColor"/></symbol><symbol id="maps" viewBox="0 0 64 64"><path d="M8 13 24 7l16 6 16-6v44l-16 6-16-6-16 6Z" fill="none" stroke="currentColor" stroke-width="5" stroke-linejoin="round"/><path d="M24 7v44M40 13v44" fill="none" stroke="currentColor" stroke-width="5"/></symbol><symbol id="reminders" viewBox="0 0 64 64"><rect x="11" y="11" width="42" height="42" rx="8" fill="none" stroke="currentColor" stroke-width="5"/><path d="m21 32 7 7 15-17" fill="none" stroke="currentColor" stroke-width="6" stroke-linecap="round" stroke-linejoin="round"/></symbol><symbol id="freeform" viewBox="0 0 64 64"><path d="m12 50 8-22 24-14 8 8-14 24Z" fill="none" stroke="currentColor" stroke-width="5" stroke-linejoin="round"/><path d="m38 18 8 8" fill="none" stroke="currentColor" stroke-width="5"/></symbol><symbol id="home" viewBox="0 0 64 64"><path d="m8 30 24-21 24 21v25H8Z" fill="none" stroke="currentColor" stroke-width="5" stroke-linejoin="round"/><path d="M25 55V39h14v16" fill="none" stroke="currentColor" stroke-width="5"/></symbol><symbol id="shortcuts" viewBox="0 0 64 64"><path d="M22 10h27v27H38l-9 17-6-17H10V10Z" fill="none" stroke="currentColor" stroke-width="5" stroke-linejoin="round"/><path d="m32 17-6 11h7l-4 10 10-14h-7Z" fill="currentColor"/></symbol><symbol id="findmy" viewBox="0 0 64 64"><circle cx="32" cy="32" r="23" fill="none" stroke="currentColor" stroke-width="5"/><circle cx="32" cy="32" r="8" fill="currentColor"/><path d="m32 9 4 19 19 4-19 4-4 19-4-19-19-4 19-4Z" fill="none" stroke="currentColor" stroke-width="4"/></symbol><symbol id="facetime" viewBox="0 0 64 64"><rect x="8" y="15" width="37" height="34" rx="9" fill="none" stroke="currentColor" stroke-width="5"/><path d="m45 25 11-7v28l-11-7Z" fill="currentColor"/></symbol><symbol id="books" viewBox="0 0 64 64"><path d="M12 9h12v46H12ZM27 9h12v46H27ZM42 9h10v46H42Z" fill="none" stroke="currentColor" stroke-width="5"/></symbol><symbol id="podcasts" viewBox="0 0 64 64"><circle cx="32" cy="32" r="7" fill="currentColor"/><path d="M20 43a17 17 0 0 1 0-22M44 43a17 17 0 0 0 0-22M13 50a27 27 0 0 1 0-36M51 50a27 27 0 0 0 0-36" fill="none" stroke="currentColor" stroke-width="5" stroke-linecap="round"/></symbol><symbol id="tv" viewBox="0 0 64 64"><rect x="7" y="15" width="50" height="34" rx="7" fill="none" stroke="currentColor" stroke-width="5"/><path d="m27 25 14 7-14 7Z" fill="currentColor"/></symbol><symbol id="tips" viewBox="0 0 64 64"><path d="M22 42h20M24 50h16M21 34a14 14 0 1 1 22 0c-4 4-5 7-5 10H26c0-3-1-6-5-10Z" fill="none" stroke="currentColor" stroke-width="5" stroke-linecap="round"/></symbol><symbol id="voice" viewBox="0 0 64 64"><rect x="24" y="8" width="16" height="34" rx="8" fill="none" stroke="currentColor" stroke-width="5"/><path d="M15 30a17 17 0 0 0 34 0M32 47v10M24 57h16" fill="none" stroke="currentColor" stroke-width="5" stroke-linecap="round"/></symbol><symbol id="library" viewBox="0 0 64 64"><rect x="7" y="7" width="22" height="22" rx="5" fill="none" stroke="currentColor" stroke-width="5"/><rect x="35" y="7" width="22" height="22" rx="5" fill="none" stroke="currentColor" stroke-width="5"/><rect x="7" y="35" width="22" height="22" rx="5" fill="none" stroke="currentColor" stroke-width="5"/><rect x="35" y="35" width="22" height="22" rx="5" fill="none" stroke="currentColor" stroke-width="5"/></symbol></defs></svg>